PathFileType	4	(X/Y/Z)	motion_data.trc
DataRate	CameraRate	NumFrames	NumMarkers	Units	OrigDataRate	OrigDataStartFrame	OrigNumFrames
30.0	30.0	115	3	mm	30.0	1357	2170
Frame#	Time	r_acromion			r_humerus_epicondyle			r_radius_styloid		
		X1	Y1	Z1	X2	Y2	Z2	X3	Y3	Z3

1357	45.2000	359.3641	569.8066	-19.2031	259.2196	503.2802	-64.5475	374.3252	517.8722	-150.6606
1358	45.2333	357.7714	569.6282	-21.2914	256.3859	502.3070	-70.0441	372.7562	517.3157	-157.9494
1359	45.2667	356.3328	569.1690	-26.0848	255.2136	501.4607	-76.6413	371.8861	516.6096	-166.4184
1360	45.3000	354.6904	568.6664	-32.2624	255.4466	501.1043	-81.5362	371.4776	515.9284	-169.9801
1361	45.3333	352.8595	568.2236	-38.2423	256.4040	501.2278	-84.8783	371.3743	515.3537	-170.7196
1362	45.3667	350.9204	567.8053	-42.9534	257.1447	501.4267	-88.3363	371.4966	514.8176	-174.4275
1363	45.4000	348.7390	567.4162	-45.9985	256.8620	501.2638	-92.4057	371.7408	514.2288	-182.1143
1364	45.4333	346.1941	567.1668	-48.3202	255.3122	500.6745	-96.4538	371.7973	513.6204	-189.2660
1365	45.4667	343.3801	567.1657	-52.0169	253.0293	500.0187	-100.3784	371.1457	513.0931	-192.4691
1366	45.5000	340.3735	567.4029	-58.1717	251.0068	499.6967	-104.5989	369.5550	512.6197	-192.9990
1367	45.5333	337.1942	567.7331	-65.3497	249.9058	499.7141	-109.0655	367.8321	512.0318	-193.7969
1368	45.5667	334.2606	567.9416	-70.8666	249.5272	499.6907	-113.4472	367.7283	511.2695	-196.2704
1369	45.6000	332.3978	567.8644	-72.5006	249.1842	499.3053	-117.2809	370.4348	510.5385	-200.2224
1370	45.6333	332.0094	567.5129	-68.7516	248.5645	498.6263	-118.8091	375.1145	510.1046	-203.5691
1371	45.6667	332.5731	567.0844	-59.5541	248.0458	497.9599	-115.2113	379.4992	509.9735	-201.7744
1372	45.7000	333.2091	566.7934	-47.9705	248.1889	497.4807	-106.0184	382.0784	509.8799	-191.1094
1373	45.7333	333.4629	566.6839	-39.3935	249.2483	497.1086	-95.4975	383.2118	509.5944	-174.2809
1374	45.7667	333.4627	566.6486	-37.0791	251.3594	496.6908	-89.4030	384.0716	509.1556	-160.8259
1375	45.8000	333.7809	566.6331	-38.9211	254.9174	496.2186	-89.1691	385.2226	508.7839	-159.4693
1376	45.8333	335.3735	566.7546	-40.0869	260.3328	495.8893	-91.1351	386.5710	508.6505	-170.1820
1377	45.8667	339.1499	567.1752	-38.8540	267.3012	495.9770	-92.1501	388.1078	508.7676	-185.4707
1378	45.9000	345.0042	567.8807	-38.4906	274.5274	496.5528	-93.8456	390.0257	509.0204	-198.9990
1379	45.9333	351.3932	568.6337	-42.8805	280.3834	497.2974	-99.6266	392.1331	509.2530	-210.3142
1380	45.9667	356.4859	569.1586	-51.9603	283.8909	497.7491	-109.5840	393.6584	509.4314	-221.6570
1381	46.0000	359.9389	569.3572	-62.5302	285.1831	497.8889	-120.8656	394.0074	509.8357	-233.6370
1382	46.0333	363.1313	569.3457	-71.4131	285.2754	498.3670	-130.7721	393.6905	510.9879	-243.9462
1383	46.0667	367.4011	569.3330	-76.3441	285.3908	499.8907	-136.9021	394.1966	513.1867	-247.8173
1384	46.1000	372.4319	569.4933	-76.2550	286.1725	502.3590	-136.9410	396.6718	516.0757	-241.0279
1385	46.1333	376.7925	569.9183	-72.5891	287.4306	504.8537	-131.1012	400.7873	518.8051	-224.8177
1386	46.1667	379.8159	570.6034	-68.6682	288.8270	506.5883	-123.1282	405.2264	520.7090	-206.7288
1387	46.2000	382.3446	571.4315	-66.6059	290.7746	507.6203	-117.4387	409.2948	521.8062	-195.3803
1388	46.2333	385.5051	572.2154	-65.8408	294.3968	508.4859	-116.2565	413.6125	522.6274	-195.1552
1389	46.2667	389.2574	572.8509	-64.8314	300.4127	509.4129	-119.3369	418.9758	523.6407	-205.0486
1390	46.3000	392.5483	573.4441	-62.8645	308.0234	510.1681	-124.5078	424.9550	524.9128	-219.6596
1391	46.3333	394.6212	574.1948	-59.6698	315.1326	510.4999	-127.9277	430.1818	526.2292	-230.6034
1392	46.3667	395.7111	575.1105	-54.5429	320.1055	510.4152	-125.7359	433.9814	527.3739	-230.3208
1393	46.4000	396.5671	575.9239	-47.4670	323.3453	510.0591	-117.5143	437.1352	528.2664	-218.1301
1394	46.4333	397.7281	576.3643	-40.7262	326.6364	509.5735	-107.8291	440.6793	528.9297	-202.2717
1395	46.4667	399.2446	576.4347	-37.5919	330.7913	509.0967	-102.7322	444.2909	529.3870	-193.4754
1396	46.5000	400.7461	576.3500	-39.2234	334.5437	508.7179	-104.7159	446.4540	529.6000	-196.1589
1397	46.5333	401.7405	576.2889	-43.9004	336.1673	508.3989	-111.6194	446.3061	529.5491	-206.4972
1398	46.5667	402.0826	576.3074	-48.5135	335.6770	508.0741	-118.7809	444.8392	529.3785	-216.8762
1399	46.6000	402.1879	576.4359	-49.5872	334.7450	507.8448	-121.0193	443.9158	529.3582	-220.4353
1400	46.6333	402.6398	576.7213	-44.6050	334.6631	507.9329	-115.1696	444.3524	529.6217	-214.2803
1401	46.6667	403.5625	577.1485	-34.8587	335.1561	508.3886	-103.5319	445.4053	530.0099	-201.8735
1402	46.7000	404.5085	577.6086	-26.0962	335.3026	508.9561	-93.4787	446.0385	530.2629	-191.3319
1403	46.7333	405.0140	577.9831	-23.7354	334.9062	509.3156	-91.1633	446.1226	530.3159	-188.9875
1404	46.7667	405.1074	578.2016	-27.3136	334.4711	509.3918	-95.8960	446.0751	530.2970	-194.5982
1405	46.8000	405.0742	578.1940	-31.4573	334.1530	509.3409	-101.7371	445.7182	530.2455	-202.8521
1406	46.8333	404.7519	577.8787	-32.6324	333.3326	509.2925	-103.9096	444.1879	529.9615	-208.1318
1407	46.8667	403.3208	577.2683	-33.3389	331.3877	509.2146	-102.9489	441.1606	529.2170	-208.2095
1408	46.9000	400.0452	576.5130	-38.4827	328.5680	509.0116	-103.1531	437.6235	528.0419	-205.5634
1409	46.9333	395.2056	575.7627	-48.3499	325.7264	508.6181	-107.4392	434.8497	526.6902	-205.1185
1410	46.9667	389.9859	575.0444	-57.1178	323.0995	507.9341	-113.8506	432.7192	525.3430	-208.8882
1411	47.0000	385.1910	574.3521	-59.3683	319.6313	506.8212	-117.8706	429.6511	523.9780	-213.4351
1412	47.0333	380.3098	573.7830	-56.8224	313.9098	505.3349	-118.3073	424.4638	522.5724	-214.4582
1413	47.0667	374.3218	573.4767	-56.5510	305.9368	503.8942	-119.0982	417.9139	521.3039	-212.4394
1414	47.1000	367.4317	573.4466	-62.3952	297.7429	503.0092	-123.8657	411.9284	520.4339	-210.9381
1415	47.1333	361.4133	573.5561	-69.8562	291.8889	502.8111	-129.9144	407.4417	520.0324	-210.4533
1416	47.1667	357.8406	573.6535	-70.4792	289.2167	502.9786	-129.8374	403.5274	519.9036	-207.5813
1417	47.2000	356.3304	573.6752	-61.0304	288.1507	503.1233	-119.8646	398.8217	519.7915	-200.7243
1418	47.2333	355.0075	573.6370	-47.8953	286.2403	503.1065	-105.6566	393.3308	519.6013	-193.6723
1419	47.2667	352.5319	573.5797	-41.6752	282.3339	502.9775	-97.8589	388.4195	519.3756	-191.3193
1420	47.3000	349.2725	573.5357	-46.8251	277.3292	502.7965	-101.1398	385.2943	519.1127	-192.7818
1421	47.3333	346.6232	573.5222	-57.6173	273.0892	502.6608	-109.6436	383.9887	518.7423	-191.6804
1422	47.3667	345.5622	573.5477	-65.3771	270.7964	502.8011	-114.9954	383.7276	518.3183	-184.7817
1423	47.4000	345.9169	573.6062	-68.1143	270.1602	503.4380	-116.7395	383.8267	518.0986	-178.6961
1424	47.4333	346.7609	573.6659	-71.1507	269.8891	504.5041	-122.1100	384.1896	518.3198	-185.4178
1425	47.4667	347.3493	573.7042	-79.3843	268.8749	505.6533	-136.1597	385.1712	518.9546	-209.8545
1426	47.5000	347.7102	573.7833	-90.8964	267.0739	506.6091	-154.2943	386.9852	519.7796	-241.3737
1427	47.5333	348.4674	574.0479	-98.3149	265.3230	507.3843	-165.3323	389.2482	520.6210	-259.5095
1428	47.5667	350.1983	574.5840	-95.8823	264.4889	508.1187	-161.7452	391.3882	521.4374	-251.6046
1429	47.6000	352.9612	575.2858	-84.7960	265.0958	508.8616	-146.3334	393.6501	522.2136	-225.0769
1430	47.6333	356.3455	575.9196	-71.4343	267.5545	509.6075	-128.5062	397.2485	522.9134	-199.4768
1431	47.6667	359.8844	576.3385	-61.3950	272.0301	510.4027	-115.5587	402.9484	523.5674	-187.6136
1432	47.7000	363.3957	576.6171	-56.8896	277.8698	511.2866	-109.7256	409.6218	524.2892	-188.7634
1433	47.7333	366.9653	576.9649	-58.8319	283.6748	512.1912	-111.9756	414.8798	525.1290	-198.3931
1434	47.7667	370.7263	577.5202	-67.3420	288.3351	513.0223	-123.0900	417.4002	525.9783	-215.7872
1435	47.8000	374.7861	578.2297	-78.4686	291.8979	513.8100	-138.7447	418.2170	526.6810	-238.0552
1436	47.8333	379.3136	578.9036	-83.8667	295.2085	514.6583	-147.8104	419.4367	527.1579	-252.4735
1437	47.8667	384.4605	579.3634	-77.2436	298.7780	515.5290	-140.0774	422.0926	527.3685	-242.5632
1438	47.9000	390.0162	579.5403	-60.5739	302.3125	516.2037	-115.8859	425.7154	527.2920	-204.4458
1439	47.9333	395.2433	579.4877	-42.5696	305.3790	516.5117	-87.2767	429.6135	527.1251	-155.8051
1440	47.9667	399.4304	579.3587	-31.7735	308.0687	516.5077	-69.9583	433.6794	527.4473	-125.6868
1441	48.0000	402.8043	579.3559	-31.0280	310.8701	516.3753	-72.5946	437.8150	528.9540	-131.8150
1442	48.0333	406.5642	579.5845	-35.7514	314.4955	516.2319	-89.9553	441.4475	531.8597	-164.8116
1443	48.0667	411.6494	579.8688	-36.3860	319.8617	516.0597	-104.9712	444.1659	535.4782	-193.5430
1444	48.1000	417.6590	579.7829	-26.0592	327.1169	515.7783	-101.0846	446.3501	538.2334	-188.3475
1445	48.1333	423.3475	579.0050	-8.6223	334.2772	515.4239	-76.6648	448.6485	538.1330	-144.2080
1446	48.1667	428.0767	577.6908	3.3557	338.0576	515.3415	-47.2811	450.9291	533.9005	-85.2055
1447	48.2000	432.4246	576.4005	1.4476	337.0685	516.0608	-31.9041	451.9331	526.3688	-46.0744
1448	48.2333	437.3505	575.5343	-8.6978	333.8580	517.7126	-35.7280	450.3465	518.5554	-44.6299
1449	48.2667	443.0319	574.8706	-11.7932	333.1451	519.6289	-45.5732	447.1804	513.6453	-66.5757
1450	48.3000	448.6799	573.8097	2.4873	337.7790	520.8603	-42.5890	447.0917	512.8060	-77.9544
1451	48.3333	453.4805	572.0980	28.5666	346.3139	521.1527	-22.0659	454.7793	515.0890	-59.8003
1452	48.3667	457.5208	570.1394	48.1402	354.3973	521.1289	-1.1251	467.7087	518.8081	-32.5825
1453	48.4000	461.5385	568.4426	46.3668	358.4127	521.3808	-2.4115	475.0333	522.4735	-36.3823
1454	48.4333	465.8779	566.8535	27.4852	357.9500	521.6326	-27.0009	469.0747	525.1904	-79.6625
1455	48.4667	470.0835	564.6306	13.1415	355.3831	521.0662	-48.2051	456.8537	527.1673	-119.8911
1456	48.5000	473.4079	561.4596	21.4420	353.5959	519.4080	-38.9543	451.5448	529.3846	-110.7359
1457	48.5333	475.2577	558.1882	47.4034	353.9056	517.4088	-2.3832	448.9632	531.6897	-59.0724
1458	48.5667	475.2878	556.2069	67.5643	355.5357	516.1525	32.9004	423.3287	531.6065	-13.4997
1459	48.6000	473.6535	556.1022	64.4569	356.7081	516.0719	45.5544	359.2983	526.7974	-1.9823
1460	48.6333	471.2438	557.2034	43.1153	356.2732	516.7711	38.8603	284.1347	519.3313	-8.2760
1461	48.6667	469.2422	558.4330	22.4615	354.6261	517.6772	25.4683	251.0078	515.6061	-12.4656
1462	48.7000	468.2124	559.2555	14.5528	353.4587	518.6609	8.2613	284.1271	520.0824	-24.9197
1463	48.7333	467.6557	559.7458	16.0222	354.5314	520.0024	-16.1311	351.4853	530.1621	-64.0492
1464	48.7667	466.5225	560.1175	17.3618	358.0124	521.8757	-43.4334	399.1624	539.4326	-119.8277
1465	48.8000	464.1064	560.4369	14.7173	361.7017	523.9419	-61.6278	403.4822	544.9979	-159.3099
1466	48.8333	460.4071	560.6808	11.3396	362.3760	525.4018	-62.8970	381.3137	548.9339	-161.3801
1467	48.8667	455.8669	560.8884	11.5639	358.4171	525.4415	-49.9622	359.1884	553.3588	-133.3920
1468	48.9000	451.1699	561.1904	16.1805	351.1263	523.8074	-32.2893	347.8307	557.7060	-98.5279
1469	48.9333	447.3016	561.6551	22.4157	343.4065	521.1492	-19.5403	345.0599	561.2029	-76.0446
1470	48.9667	445.2436	562.1034	26.4171	337.4688	518.7516	-16.0529	347.0174	564.3055	-69.8946
1471	49.0000	445.0973	562.1854	25.9682	334.0304	517.7043	-17.7866	348.7543	565.9793	-68.7797
